# xmcd CD database file
#
# Track frame offsets:
#	187
#	39775
#	80765
#	97015
#	150357
#
# Disc length: 2452 seconds
#
# Revision: 1
# Processed by: cddbd v1.5.1PL0 Copyright (c) Steve Scherf et al.
# Submitted via: CDex 1.51
#
DISCID=2d099205
DTITLE=John Coltrane - Crescent
DYEAR=1964
DGENRE=Jazz
TTITLE0=Crescent
TTITLE1=Wise One
TTITLE2=Bessie's Blues
TTITLE3=Lonnie's Lament
TTITLE4=The Drum Thing
EXTD=YEAR: 1964
EXTT0=
EXTT1=
EXTT2=
EXTT3=
EXTT4=
PLAYORDER=
